<?xml version="1.0" encoding="utf-8"?>
<!-- Generator: Adobe Illustrator 22.0.1, SVG Export Plug-In . SVG Version: 6.00 Build 0)  -->
<svg version="1.1" id="type2" xmlns="http://www.w3.org/2000/svg" xmlns:xlink="http://www.w3.org/1999/xlink" x="0px" y="0px"
	 viewBox="0 0 633.7 20.2" style="enable-background:new 0 0 633.7 20.2;" xml:space="preserve">
<style type="text/css">
	.st0{fill:#141414;}
</style>
<title>type2</title>
<path class="st0" d="M18.1,17.6c-4.7,1.2-9.1,2.3-13,0c-1.9-1.2-3.2-3.1-3.7-5.5C0.9,9.4,1.5,6.5,3.2,4.3C4.3,2.7,6.1,1.7,8,1.4
	c2-0.3,3.9,0.2,5.5,1.4c2.6,1.9,3.1,5.6,1.2,8.1c-1.1,1.4-2.8,2-4.5,1.7c0.6-0.8,0.6-1.9-0.1-2.6c-0.7-0.7-1.9-0.7-2.6,0.1
	c-0.7,0.8-0.7,1.9,0.1,2.6c0,0,0.1,0,0.1,0.1l0,0c2.6,1.9,6.2,1.4,8.2-1.2c2.3-3.2,1.7-7.6-1.5-10c-1.9-1.4-4.2-2-6.5-1.6
	C5.5,0.4,3.5,1.7,2.1,3.5c-1.8,2.5-2.6,5.8-2,8.8c0.5,2.7,2.1,5,4.3,6.3c1.9,1.2,3.9,1.6,5.9,1.6c2.7,0,5.4-0.7,8.1-1.4
	c4.6-1.2,8.9-2.3,12.5,0l0.7-1.1C27.5,15.2,22.7,16.4,18.1,17.6z"/>
<path class="st0" d="M44.3,17.6c-4.7,1.2-9.1,2.3-13,0c-1.9-1.2-3.2-3.1-3.7-5.5c-0.5-2.7,0.1-5.6,1.8-7.7c1.2-1.6,2.9-2.6,4.9-2.9
	c2-0.3,3.9,0.2,5.5,1.4c2.6,1.9,3.1,5.6,1.2,8.1c-1.1,1.4-2.8,2-4.5,1.7c0.6-0.8,0.6-1.9-0.1-2.6c-0.8-0.7-1.9-0.7-2.6,0.1
	c-0.7,0.8-0.7,1.9,0.1,2.6c0,0,0.1,0,0.1,0.1l0,0c2.6,1.9,6.2,1.4,8.2-1.2c2.3-3.2,1.7-7.6-1.5-10c-1.9-1.4-4.2-2-6.5-1.6
	c-2.3,0.3-4.3,1.6-5.7,3.5c-1.8,2.5-2.6,5.8-2,8.8c0.5,2.7,2.1,5,4.3,6.3c1.9,1.2,3.9,1.6,5.9,1.6c2.7,0,5.4-0.7,8.1-1.4
	c4.6-1.2,8.9-2.3,12.5,0l0.7-1.1C53.7,15.2,48.9,16.4,44.3,17.6z"/>
<path class="st0" d="M70.4,17.6c-4.7,1.2-9.1,2.3-13,0c-1.9-1.2-3.2-3.1-3.7-5.5c-0.5-2.7,0.1-5.6,1.8-7.7c1.2-1.6,2.9-2.6,4.9-2.9
	c2-0.3,3.9,0.2,5.5,1.4c2.6,1.9,3.1,5.6,1.2,8.1c-1.1,1.4-2.8,2-4.5,1.7c0.6-0.8,0.6-1.9-0.1-2.6c-0.7-0.7-1.9-0.7-2.6,0.1
	c-0.7,0.8-0.7,1.9,0.1,2.6c0,0,0.1,0,0.1,0.1l0,0c2.6,1.9,6.2,1.4,8.2-1.2c2.3-3.2,1.7-7.6-1.5-10c-1.9-1.4-4.2-2-6.5-1.6
	c-2.3,0.3-4.3,1.6-5.7,3.5c-1.8,2.5-2.6,5.8-2,8.8c0.5,2.7,2.1,4.9,4.3,6.3c1.9,1.2,3.9,1.6,5.9,1.6c2.7,0,5.4-0.7,8.1-1.4
	c4.6-1.2,8.9-2.3,12.5,0l0.7-1.1C79.9,15.2,75.1,16.4,70.4,17.6z"/>
<path class="st0" d="M96.6,17.6c-4.7,1.2-9.1,2.3-13,0c-1.9-1.2-3.2-3.1-3.7-5.5c-0.5-2.7,0.1-5.6,1.8-7.7c1.2-1.6,2.9-2.6,4.9-2.9
	c2-0.3,3.9,0.2,5.5,1.4c2.6,1.9,3.1,5.6,1.2,8.1c-1.1,1.4-2.8,2-4.5,1.7c0.6-0.8,0.6-1.9-0.1-2.6c-0.8-0.7-1.9-0.7-2.6,0.1
	c-0.7,0.8-0.7,1.9,0.1,2.6c0,0,0.1,0,0.1,0.1l0,0c2.6,1.9,6.2,1.4,8.2-1.2c2.3-3.2,1.7-7.6-1.5-10c-1.9-1.4-4.2-2-6.5-1.6
	c-2.3,0.3-4.3,1.6-5.7,3.5c-1.8,2.5-2.6,5.8-2,8.8c0.5,2.7,2.1,5,4.3,6.3c1.9,1.2,3.9,1.6,5.9,1.6c2.7,0,5.4-0.7,8.1-1.4
	c4.6-1.2,8.9-2.3,12.5,0l0.7-1.1C106,15.2,101.3,16.4,96.6,17.6z"/>
<path class="st0" d="M122.8,17.6c-4.7,1.2-9.1,2.3-13,0c-1.9-1.2-3.2-3.1-3.7-5.5c-0.5-2.7,0.1-5.6,1.8-7.7c1.2-1.6,2.9-2.6,4.9-2.9
	c2-0.3,3.9,0.2,5.5,1.4c2.6,1.9,3.1,5.6,1.2,8.1c-1.1,1.4-2.8,2-4.5,1.7c0.6-0.8,0.6-1.9-0.1-2.6c-0.8-0.7-1.9-0.7-2.6,0.1
	c-0.7,0.8-0.7,1.9,0.1,2.6c0,0,0.1,0,0.1,0.1l0,0c2.6,1.9,6.2,1.4,8.2-1.2c2.3-3.2,1.7-7.6-1.5-10c-1.9-1.4-4.2-2-6.5-1.6
	c-2.3,0.3-4.3,1.6-5.7,3.5c-1.8,2.5-2.6,5.8-2,8.8c0.5,2.7,2.1,5,4.3,6.3c1.9,1.2,3.9,1.6,5.9,1.6c2.7,0,5.4-0.7,8.1-1.4
	c4.6-1.2,8.9-2.3,12.5,0l0.7-1.1C132.2,15.2,127.4,16.4,122.8,17.6z"/>
<path class="st0" d="M149,17.6c-4.7,1.2-9.1,2.3-13,0c-1.9-1.2-3.2-3.1-3.7-5.5c-0.5-2.7,0.1-5.6,1.8-7.7c1.2-1.6,2.9-2.6,4.9-2.9
	c2-0.3,3.9,0.2,5.5,1.4c2.6,1.9,3.1,5.6,1.2,8.1c-1.1,1.4-2.8,2-4.5,1.7c0.6-0.8,0.6-1.9-0.1-2.6c-0.8-0.7-1.9-0.7-2.6,0.1
	c-0.7,0.8-0.7,1.9,0.1,2.6c0,0,0.1,0,0.1,0.1l0,0c2.6,1.9,6.2,1.4,8.2-1.2c2.3-3.2,1.7-7.6-1.5-10c-1.9-1.4-4.2-2-6.5-1.6
	c-2.3,0.3-4.3,1.6-5.7,3.5c-1.8,2.5-2.6,5.8-2,8.8c0.5,2.7,2.1,5,4.3,6.3c1.9,1.2,3.9,1.6,5.9,1.6c2.7,0,5.4-0.7,8.1-1.4
	c4.6-1.2,8.9-2.3,12.5,0l0.7-1.1C158.4,15.2,153.6,16.4,149,17.6z"/>
<path class="st0" d="M175.1,17.6c-4.7,1.2-9.1,2.3-13,0c-1.9-1.2-3.2-3.1-3.7-5.5c-0.5-2.7,0.1-5.6,1.8-7.7c1.2-1.6,2.9-2.6,4.9-2.9
	c2-0.3,3.9,0.2,5.5,1.4c2.6,1.9,3.1,5.6,1.2,8.1c-1.1,1.4-2.8,2-4.5,1.7c0.6-0.8,0.6-1.9-0.1-2.6c-0.8-0.7-1.9-0.7-2.6,0.1
	c-0.7,0.8-0.7,1.9,0.1,2.6c0,0,0.1,0,0.1,0.1l0,0c2.6,1.9,6.2,1.4,8.2-1.2c2.3-3.2,1.7-7.6-1.5-10c-1.9-1.4-4.2-2-6.5-1.6
	c-2.3,0.3-4.3,1.6-5.7,3.5c-1.8,2.5-2.6,5.8-2,8.8c0.5,2.7,2.1,5,4.3,6.3c1.9,1.2,3.9,1.6,5.9,1.6c2.7,0,5.4-0.7,8.1-1.4
	c4.6-1.2,8.9-2.3,12.5,0l0.7-1.1C184.6,15.2,179.8,16.4,175.1,17.6z"/>
<path class="st0" d="M201.3,17.6c-4.7,1.2-9.1,2.3-13,0c-1.9-1.2-3.2-3.1-3.7-5.5c-0.5-2.7,0.1-5.6,1.8-7.7c1.2-1.6,2.9-2.6,4.9-2.9
	c2-0.3,3.9,0.2,5.5,1.4c2.6,1.9,3.1,5.6,1.2,8.1c-1.1,1.4-2.8,2-4.5,1.7c0.6-0.8,0.6-1.9-0.1-2.6c-0.8-0.7-1.9-0.7-2.6,0.1
	c-0.7,0.8-0.7,1.9,0.1,2.6c0,0,0.1,0,0.1,0.1l0,0c2.6,1.9,6.2,1.4,8.2-1.2c2.3-3.2,1.7-7.6-1.5-10c-1.9-1.4-4.2-2-6.5-1.6
	c-2.3,0.3-4.3,1.6-5.7,3.5c-1.8,2.5-2.6,5.8-2,8.8c0.5,2.7,2.1,5,4.3,6.3c1.9,1.2,3.9,1.6,5.9,1.6c2.7,0,5.4-0.7,8.1-1.4
	c4.6-1.2,8.9-2.3,12.5,0l0.7-1.1C210.7,15.2,205.9,16.4,201.3,17.6z"/>
<path class="st0" d="M227.5,17.6c-4.7,1.2-9.1,2.3-13,0c-1.9-1.2-3.2-3.1-3.7-5.5c-0.5-2.7,0.1-5.6,1.8-7.7c1.2-1.6,2.9-2.6,4.9-2.9
	c2-0.3,3.9,0.2,5.5,1.4c2.6,1.9,3.1,5.6,1.2,8.1c-1.1,1.4-2.8,2-4.5,1.7c0.6-0.8,0.6-1.9-0.1-2.6c-0.7-0.7-1.9-0.7-2.6,0.1
	c-0.7,0.8-0.7,1.9,0.1,2.6c0,0,0.1,0,0.1,0.1l0,0c2.6,1.9,6.2,1.4,8.2-1.2c2.3-3.2,1.7-7.6-1.5-10c-1.9-1.4-4.2-2-6.5-1.6
	c-2.3,0.3-4.3,1.6-5.7,3.5c-1.8,2.5-2.6,5.8-2,8.8c0.5,2.7,2.1,5,4.3,6.3c1.9,1.2,3.9,1.6,5.9,1.6c2.7,0,5.4-0.7,8.1-1.4
	c4.6-1.2,8.9-2.3,12.5,0l0.7-1.1C236.9,15.2,232.1,16.4,227.5,17.6z"/>
<path class="st0" d="M253.6,17.6c-4.7,1.2-9.1,2.3-13,0c-1.9-1.2-3.2-3.1-3.7-5.5c-0.5-2.7,0.1-5.6,1.8-7.7c1.2-1.6,2.9-2.6,4.9-2.9
	c2-0.3,3.9,0.2,5.5,1.4c2.6,1.9,3.1,5.6,1.2,8.1c-1.1,1.4-2.8,2-4.5,1.7c0.6-0.8,0.6-1.9-0.1-2.6c-0.7-0.7-1.9-0.7-2.6,0.1
	c-0.7,0.8-0.7,1.9,0.1,2.6c0,0,0.1,0,0.1,0.1l0,0c2.6,1.9,6.2,1.4,8.2-1.2c2.3-3.2,1.7-7.6-1.5-10c-1.9-1.4-4.2-2-6.5-1.6
	c-2.3,0.3-4.3,1.6-5.7,3.5c-1.8,2.5-2.6,5.8-2,8.8c0.5,2.7,2.1,5,4.3,6.3c1.9,1.2,3.9,1.6,5.9,1.6c2.7,0,5.4-0.7,8.1-1.4
	c4.6-1.2,8.9-2.3,12.5,0l0.7-1.1C263.1,15.2,258.3,16.4,253.6,17.6z"/>
<path class="st0" d="M279.8,17.6c-4.7,1.2-9.1,2.3-13,0c-1.9-1.2-3.2-3.1-3.7-5.5c-0.5-2.7,0.1-5.6,1.8-7.7c1.2-1.6,2.9-2.6,4.9-2.9
	c2-0.3,3.9,0.2,5.5,1.4c2.6,1.9,3.1,5.6,1.2,8.1c-1.1,1.4-2.8,2-4.5,1.7c0.6-0.8,0.6-1.9-0.1-2.6c-0.8-0.7-1.9-0.7-2.6,0.1
	c-0.7,0.8-0.7,1.9,0.1,2.6c0,0,0.1,0,0.1,0.1l0,0c2.6,1.9,6.2,1.4,8.2-1.2c2.3-3.2,1.7-7.6-1.5-10c-1.9-1.4-4.2-2-6.5-1.6
	c-2.3,0.3-4.3,1.6-5.7,3.5c-1.8,2.5-2.6,5.8-2,8.8c0.5,2.7,2.1,5,4.3,6.3c1.9,1.2,3.9,1.6,5.9,1.6c2.7,0,5.4-0.7,8.1-1.4
	c4.6-1.2,8.9-2.3,12.5,0l0.7-1.1C289.2,15.2,284.4,16.4,279.8,17.6z"/>
<path class="st0" d="M306,17.6c-4.7,1.2-9.1,2.3-13,0c-1.9-1.2-3.2-3.1-3.7-5.5c-0.5-2.7,0.1-5.6,1.8-7.7c1.2-1.6,2.9-2.6,4.9-2.9
	c2-0.3,3.9,0.2,5.5,1.4c2.6,1.9,3.1,5.6,1.2,8.1c-1.1,1.4-2.8,2-4.5,1.7c0.6-0.8,0.6-1.9-0.1-2.6c-0.7-0.7-1.9-0.7-2.6,0.1
	c-0.7,0.8-0.7,1.9,0.1,2.6c0,0,0.1,0,0.1,0.1l0,0c2.6,1.9,6.2,1.4,8.2-1.2c2.3-3.2,1.7-7.6-1.5-10c-1.9-1.4-4.2-2-6.5-1.6
	c-2.3,0.3-4.3,1.6-5.7,3.5c-1.8,2.5-2.6,5.8-2,8.8c0.5,2.7,2.1,5,4.3,6.3c1.9,1.2,3.9,1.6,5.9,1.6c2.7,0,5.4-0.7,8.1-1.4
	c4.6-1.2,8.9-2.3,12.5,0l0.7-1.1C315.4,15.2,310.6,16.4,306,17.6z"/>
<path class="st0" d="M332.2,17.6c-4.7,1.2-9.1,2.3-13,0c-1.9-1.2-3.2-3.1-3.7-5.5c-0.5-2.7,0.1-5.6,1.8-7.7c2.4-3.3,7.1-4,10.4-1.6
	c2.6,1.9,3.1,5.6,1.2,8.1c-1.1,1.4-2.8,2-4.5,1.7c0.6-0.8,0.6-1.9-0.1-2.6c-0.8-0.7-1.9-0.7-2.6,0.1c-0.7,0.8-0.7,1.9,0.1,2.6
	c0,0,0.1,0,0.1,0.1l0,0c2.6,1.9,6.2,1.4,8.2-1.2c2.3-3.2,1.7-7.6-1.5-10c-3.9-2.9-9.4-2-12.2,1.8c-1.8,2.5-2.6,5.8-2,8.8
	c0.5,2.7,2.1,4.9,4.3,6.3c1.9,1.2,3.9,1.6,5.9,1.6c2.7,0,5.4-0.7,8.1-1.4c4.6-1.2,8.9-2.3,12.5,0l0.7-1.1
	C341.6,15.2,336.8,16.4,332.2,17.6z"/>
<path class="st0" d="M358.3,17.6c-4.7,1.2-9.1,2.3-13,0c-1.9-1.2-3.2-3.1-3.7-5.5c-0.5-2.7,0.1-5.6,1.8-7.7c1.2-1.6,2.9-2.6,4.9-2.9
	c2-0.3,3.9,0.2,5.5,1.4c2.6,1.9,3.1,5.6,1.2,8.1c-1.1,1.4-2.8,2-4.5,1.7c0.6-0.8,0.6-1.9-0.1-2.6c-0.8-0.7-1.9-0.7-2.6,0.1
	c-0.7,0.8-0.7,1.9,0.1,2.6c0,0,0.1,0,0.1,0.1l0,0c2.6,1.9,6.2,1.4,8.2-1.2c2.3-3.2,1.7-7.6-1.5-10c-1.9-1.4-4.2-2-6.5-1.6
	c-2.3,0.3-4.3,1.6-5.7,3.5c-1.8,2.5-2.6,5.8-2,8.8c0.5,2.7,2.1,5,4.3,6.3c1.9,1.2,3.9,1.6,5.9,1.6c2.7,0,5.4-0.7,8.1-1.4
	c4.6-1.2,8.9-2.3,12.5,0l0.7-1.1C367.8,15.2,363,16.4,358.3,17.6z"/>
<path class="st0" d="M384.5,17.6c-4.7,1.2-9.1,2.3-13,0c-1.9-1.2-3.2-3.1-3.7-5.5c-0.5-2.7,0.1-5.6,1.8-7.7c2.4-3.3,7.1-4,10.4-1.6
	c2.6,1.9,3.1,5.6,1.2,8.1c-1.1,1.4-2.8,2-4.5,1.7c0.6-0.8,0.6-1.9-0.1-2.6c-0.8-0.7-1.9-0.7-2.6,0.1c-0.7,0.8-0.7,1.9,0.1,2.6
	c0,0,0.1,0,0.1,0.1l0,0c2.6,1.9,6.2,1.4,8.2-1.2c2.3-3.2,1.7-7.6-1.5-10c-3.9-2.9-9.4-2-12.2,1.8c-1.8,2.5-2.6,5.8-2,8.8
	c0.5,2.7,2.1,5,4.3,6.3c1.9,1.2,3.9,1.6,5.9,1.6c2.7,0,5.4-0.7,8.1-1.4c4.6-1.2,8.9-2.3,12.5,0l0.7-1.1
	C393.9,15.2,389.1,16.4,384.5,17.6z"/>
<path class="st0" d="M410.7,17.6c-4.7,1.2-9.1,2.3-13,0c-1.9-1.2-3.2-3.1-3.7-5.5c-0.5-2.7,0.1-5.6,1.8-7.7c1.2-1.6,2.9-2.6,4.9-2.9
	c2-0.3,3.9,0.2,5.5,1.4c2.6,1.9,3.1,5.6,1.2,8.1c-1.1,1.4-2.8,2-4.5,1.7c0.6-0.8,0.6-1.9-0.1-2.6c-0.8-0.7-1.9-0.7-2.6,0.1
	c-0.7,0.8-0.7,1.9,0.1,2.6c0,0,0.1,0,0.1,0.1l0,0c2.6,1.9,6.2,1.4,8.2-1.2c2.3-3.2,1.7-7.6-1.5-10c-1.9-1.4-4.2-2-6.5-1.6
	c-2.3,0.3-4.3,1.6-5.7,3.5c-1.8,2.5-2.6,5.8-2,8.8c0.5,2.7,2.1,4.9,4.3,6.3c1.9,1.2,3.9,1.6,5.9,1.6c2.7,0,5.4-0.7,8.1-1.4
	c4.6-1.2,8.9-2.3,12.5,0l0.7-1.1C420.1,15.2,415.3,16.4,410.7,17.6z"/>
<path class="st0" d="M436.8,17.6c-4.7,1.2-9.1,2.3-13,0c-1.9-1.2-3.2-3.1-3.7-5.5c-0.5-2.7,0.1-5.6,1.8-7.7c2.4-3.3,7.1-4,10.4-1.6
	c2.6,1.9,3.1,5.6,1.2,8.1c-0.7,1-1.8,1.6-3,1.8c-0.5,0.1-1,0-1.5,0c0.6-0.8,0.6-1.9-0.1-2.6c-0.8-0.7-1.9-0.7-2.6,0.1
	c-0.7,0.8-0.7,1.9,0.1,2.6c0,0,0.1,0,0.1,0.1l0,0c1.3,0.9,2.8,1.3,4.3,1.1c1.5-0.2,2.9-1,3.8-2.3c2.3-3.2,1.7-7.6-1.5-10
	c-3.9-2.9-9.4-2-12.2,1.8c-1.8,2.5-2.6,5.8-2,8.8c0.5,2.7,2.1,5,4.3,6.3c1.9,1.2,3.9,1.6,5.9,1.6c2.7,0,5.4-0.7,8.1-1.4
	c4.6-1.2,8.9-2.3,12.5,0l0.7-1.1C446.3,15.2,441.5,16.4,436.8,17.6z"/>
<path class="st0" d="M463,17.6c-4.7,1.2-9.1,2.3-13,0c-1.9-1.2-3.2-3.1-3.7-5.5c-0.5-2.7,0.1-5.6,1.8-7.7c2.4-3.3,7.1-4,10.4-1.6
	c2.6,1.9,3.1,5.6,1.2,8.1c-1.1,1.4-2.8,2-4.5,1.7c0.6-0.8,0.6-1.9-0.1-2.6c-0.8-0.7-1.9-0.7-2.6,0.1c-0.7,0.8-0.7,1.9,0.1,2.6
	c0,0,0.1,0,0.1,0.1l0,0c2.6,1.9,6.2,1.4,8.2-1.2c2.3-3.2,1.7-7.6-1.5-10c-3.9-2.9-9.4-2-12.2,1.8c-1.8,2.5-2.6,5.8-2,8.8
	c0.5,2.7,2.1,5,4.3,6.3c1.9,1.2,3.9,1.6,5.9,1.6c2.7,0,5.4-0.7,8.1-1.4c4.6-1.2,8.9-2.3,12.5,0l0.7-1.1
	C472.4,15.2,467.6,16.4,463,17.6z"/>
<path class="st0" d="M489.2,17.6c-4.7,1.2-9.1,2.3-13,0c-1.9-1.2-3.2-3.1-3.7-5.5c-0.5-2.7,0.1-5.6,1.8-7.7c1.2-1.6,2.9-2.6,4.9-2.9
	c2-0.3,3.9,0.2,5.5,1.4c2.6,1.9,3.1,5.6,1.2,8.1c-1.1,1.4-2.8,2-4.5,1.7c0.6-0.8,0.6-1.9-0.1-2.6c-0.8-0.7-1.9-0.7-2.6,0.1
	c-0.7,0.8-0.7,1.9,0.1,2.6c0,0,0.1,0,0.1,0.1l0,0c2.6,1.9,6.2,1.4,8.2-1.2c2.3-3.2,1.7-7.6-1.5-10c-1.9-1.4-4.2-2-6.5-1.6
	c-2.3,0.3-4.3,1.6-5.7,3.5c-1.8,2.5-2.6,5.8-2,8.8c0.5,2.7,2.1,5,4.3,6.3c1.9,1.2,3.9,1.6,5.9,1.6c2.7,0,5.4-0.7,8.1-1.4
	c4.6-1.2,8.9-2.3,12.5,0l0.7-1.1C498.6,15.2,493.8,16.4,489.2,17.6z"/>
<path class="st0" d="M515.3,17.6c-4.7,1.2-9.1,2.3-13,0c-1.9-1.2-3.2-3.1-3.7-5.5c-0.5-2.7,0.1-5.6,1.8-7.7c1.2-1.6,2.9-2.6,4.9-2.9
	c2-0.3,3.9,0.2,5.5,1.4c2.6,1.9,3.1,5.6,1.2,8.1c-1.1,1.4-2.8,2-4.5,1.7c0.6-0.8,0.6-1.9-0.1-2.6c-0.8-0.7-1.9-0.7-2.6,0.1
	c-0.7,0.8-0.7,1.9,0.1,2.6c0,0,0.1,0,0.1,0.1l0,0c2.6,1.9,6.2,1.4,8.2-1.2c2.3-3.2,1.7-7.6-1.5-10c-1.9-1.4-4.2-2-6.5-1.6
	c-2.3,0.3-4.3,1.6-5.7,3.5c-1.8,2.5-2.6,5.8-2,8.8c0.5,2.7,2.1,5,4.3,6.3c1.9,1.2,3.9,1.6,5.9,1.6c2.7,0,5.4-0.7,8.1-1.4
	c4.6-1.2,8.9-2.3,12.5,0l0.7-1.1C524.8,15.2,520,16.4,515.3,17.6z"/>
<path class="st0" d="M541.5,17.6c-4.7,1.2-9.1,2.3-13,0c-1.9-1.2-3.2-3.1-3.7-5.5c-0.5-2.7,0.1-5.6,1.8-7.7c2.4-3.3,7.1-4,10.4-1.6
	c2.6,1.9,3.1,5.6,1.2,8.1c-1.1,1.4-2.8,2-4.5,1.7c0.6-0.8,0.6-1.9-0.1-2.6c-0.8-0.7-1.9-0.7-2.6,0.1c-0.7,0.8-0.7,1.9,0.1,2.6
	c0,0,0.1,0,0.1,0.1l0,0c2.6,1.9,6.2,1.4,8.2-1.2c2.3-3.2,1.7-7.6-1.5-10c-3.9-2.9-9.4-2-12.2,1.8c-1.8,2.5-2.6,5.8-2,8.8
	c0.5,2.7,2.1,5,4.3,6.3c1.9,1.2,3.9,1.6,5.9,1.6c2.7,0,5.4-0.7,8.1-1.4c4.6-1.2,8.9-2.3,12.5,0l0.7-1.1
	C550.9,15.2,546.2,16.4,541.5,17.6z"/>
<path class="st0" d="M567.7,17.6c-4.7,1.2-9.1,2.3-13,0c-1.9-1.2-3.2-3.1-3.7-5.5c-0.5-2.7,0.1-5.6,1.8-7.7c1.2-1.6,2.9-2.6,4.9-2.9
	c2-0.3,3.9,0.2,5.5,1.4c2.6,1.9,3.1,5.6,1.2,8.1c-1.1,1.4-2.8,2-4.5,1.7c0.6-0.8,0.6-1.9-0.1-2.6c-0.8-0.7-1.9-0.7-2.6,0.1
	c-0.7,0.8-0.7,1.9,0.1,2.6c0,0,0.1,0,0.1,0.1l0,0c2.6,1.9,6.2,1.4,8.2-1.2c2.3-3.2,1.7-7.6-1.5-10c-1.9-1.4-4.2-2-6.5-1.6
	c-2.3,0.3-4.3,1.6-5.7,3.5c-1.8,2.5-2.6,5.8-2,8.8c0.5,2.7,2.1,5,4.3,6.3c1.9,1.2,3.9,1.6,5.9,1.6c2.7,0,5.4-0.7,8.1-1.4
	c4.6-1.2,8.9-2.3,12.5,0l0.7-1.1C577.1,15.2,572.3,16.4,567.7,17.6z"/>
<path class="st0" d="M593.9,17.6c-4.7,1.2-9.1,2.3-13,0c-1.9-1.2-3.2-3.1-3.7-5.5c-0.5-2.7,0.1-5.6,1.8-7.7c1.2-1.6,2.9-2.6,4.9-2.9
	c2-0.3,3.9,0.2,5.5,1.4c2.6,1.9,3.1,5.6,1.2,8.1c-1.1,1.4-2.8,2-4.5,1.7c0.6-0.8,0.6-1.9-0.1-2.6c-0.8-0.7-1.9-0.7-2.6,0.1
	c-0.7,0.8-0.7,1.9,0.1,2.6c0,0,0.1,0,0.1,0.1l0,0c2.6,1.9,6.2,1.4,8.2-1.2c2.3-3.2,1.7-7.6-1.5-10c-1.9-1.4-4.2-2-6.5-1.6
	c-2.3,0.3-4.3,1.6-5.7,3.5c-1.8,2.5-2.6,5.8-2,8.8c0.5,2.7,2.1,5,4.3,6.3c1.9,1.2,3.9,1.6,5.9,1.6c2.7,0,5.4-0.7,8.1-1.4
	c4.6-1.2,8.9-2.3,12.5,0l0.7-1.1C603.3,15.2,598.5,16.4,593.9,17.6z"/>
<path class="st0" d="M620,17.6c-4.7,1.2-9.1,2.3-13,0c-1.9-1.2-3.2-3.1-3.7-5.5c-0.5-2.7,0.1-5.6,1.8-7.7c2.4-3.3,7.1-4,10.4-1.6
	c2.6,1.9,3.1,5.6,1.2,8.1c-1.1,1.4-2.8,2-4.5,1.7c0.6-0.8,0.6-1.9-0.1-2.6c-0.8-0.7-1.9-0.7-2.6,0.1c-0.7,0.8-0.7,1.9,0.1,2.6
	c0,0,0.1,0,0.1,0.1l0,0c2.6,1.9,6.2,1.4,8.2-1.2c2.3-3.2,1.7-7.6-1.5-10c-3.9-2.9-9.4-2-12.2,1.8c-1.8,2.5-2.6,5.8-2,8.8
	c0.5,2.7,2.1,5,4.3,6.3c1.9,1.2,3.9,1.6,5.9,1.6c2.7,0,5.4-0.7,8.1-1.4c4.6-1.2,8.9-2.3,12.5,0l0.7-1.1
	C629.5,15.2,624.7,16.4,620,17.6z"/>
</svg>
